<svg xmlns="http://www.w3.org/2000/svg" width="183.265" height="169.692"><g fill="#e55b3f"><path d="M148.074.713l-.647.228a.43.43 0 00-.606.185l-.016.033c-5.533 1.949-11.074 3.88-16.59 5.865a45.205 45.205 0 00-7.759 3.414 22.803 22.803 0 00-6.484 5.89 52.306 52.306 0 00-4.73 7.815 21.703 21.703 0 01.203-13.486c.135-.388-.316-.854-.682-.535A48.713 48.713 0 0192.06 20.187a11.03 11.03 0 00-4.353 1.98 12.301 12.301 0 00-2.833 4.547A57.492 57.492 0 0080.14 46.7a22.97 22.97 0 01-2.317-20.4.48.48 0 00-.723-.568 80.894 80.894 0 01-11.556 7.013 82.522 82.522 0 01-6.084 2.71 18.584 18.584 0 00-5.563 2.94C50.84 41.08 49.776 45.3 49.344 49.19a35.23 35.23 0 00.564 11.185 35.384 35.384 0 004.262 10.818c-4.57-.21-8.407-3.73-10.294-7.735-2.258-4.793-2.217-10.293-2.128-15.479.009-.48-.668-.784-.88-.253-3.049 7.613-10.136 12.512-14.781 19.052a50.547 50.547 0 00-8.18 18.895c-2.956 14.119.109 30.377 10.414 40.931A29.057 29.057 0 0049.7 135.69c-2.293 4.736-4.319 9.595-6.218 14.5a94.673 94.673 0 00-1.633 4.493.136.136 0 00.248.108c2.71-5.69 4.943-11.598 7.653-17.293.205-.43.417-.857.626-1.285 7.1 14.717 24.793 22.072 40.44 18.45a44.011 44.011 0 0021.114-12.003 46.305 46.305 0 004.196-4.852 26.35 26.35 0 003.28-5.11c1.73-4.026-3.217-5.71-5.97-7.01-7.494-3.541-11.279-13.227-8.374-20.934q6.344 5.95 12.71 11.878c1.497 1.393 3.098 2.872 5.12 3.426 2.165.594 4.024-.36 5.557-1.86 6.846-6.702 11.99-15.34 15.599-24.156a100.762 100.762 0 006.83-28.589 142.44 142.44 0 00-.66-29.74c-1.162-10.181-2.682-20.433-1.885-30.702q.148-1.897.406-3.782a.485.485 0 00-.665-.515zM130.09 7.938c2.814-.981 5.636-1.942 8.453-2.916l7.686-2.656c-5.171 10.761-9.428 21.954-15.022 32.514a125.615 125.615 0 01-9.731 15.416 39.677 39.677 0 01-3.374-16.18 37.421 37.421 0 014.553-17.422 44.37 44.37 0 015.87-8.19q.776-.291 1.565-.566zm-19.922 3.859a22.21 22.21 0 00.583 13.649.446.446 0 00.814.008c2.648-5.346 5.662-10.791 10.844-14.068a30.204 30.204 0 015.25-2.556 36.63 36.63 0 00-8.652 15.183 38.92 38.92 0 00-.985 17.565 36.522 36.522 0 002.984 9.347c-3.469 4.683-7.21 9.167-11.127 13.5-3.853 4.27-7.851 8.385-11.896 12.456-6.442-6.172-7.11-16.285-6.391-24.655a65.698 65.698 0 018.646-26.802 96.187 96.187 0 019.217-13.064c.234-.185.474-.372.708-.563zM80.173 48.37c.218.291.82.207.831-.212a57.159 57.159 0 014.099-19.88 17.193 17.193 0 012.49-4.829c1.233-1.44 3.037-1.971 4.796-2.47a49.949 49.949 0 009.569-3.765 48.653 48.653 0 005.497-3.364 75.135 75.135 0 00-7.063 9.915 70.525 70.525 0 00-6.38 13.662 62.817 62.817 0 00-3.01 13.535 49.172 49.172 0 00.305 13.765c.847 4.702 2.68 9.315 6.147 12.687-4.349 4.373-8.753 8.686-13.095 13.061q-3.786 3.811-7.493 7.719a35.412 35.412 0 01-11.557-10.61 35.173 35.173 0 01-5.596-14.307 40.637 40.637 0 01.418-14.583 56.32 56.32 0 016-15.263c1.541-2.832 3.207-5.601 4.887-8.351a34.558 34.558 0 015.255-7.01 23.803 23.803 0 003.9 20.3zm-39.354 1.697c-.008 4.947.283 10.108 2.687 14.5 2.287 4.18 6.472 7.534 11.413 7.425.326-.007.41-.403.267-.629a34.824 34.824 0 01-5.159-20.975c.3-3.903 1.136-8.363 4.115-11.163a16.827 16.827 0 015.629-3.01 83.014 83.014 0 005.815-2.528 80.896 80.896 0 009.927-5.701 31.785 31.785 0 00-4.275 5.598 206.358 206.358 0 00-4.496 7.597 64.708 64.708 0 00-6.807 15.748c-2.527 9.917-1.463 20.76 3.865 29.597a30.857 30.857 0 0012.726 12.028 191.867 191.867 0 00-16.057 19.112c-.315.438-.624.879-.935 1.32-9.797-3.4-17.378-11.36-21.26-20.893-3.895-9.562-4.262-20.182-2.523-30.262a109.303 109.303 0 015-17.651c.026-.04.049-.076.068-.113zm-10.65 77.205a39.559 39.559 0 01-11.227-19.921 49.684 49.684 0 017.174-39.03 80.17 80.17 0 018.082-9.497 50.419 50.419 0 005.067-6.155 93.805 93.805 0 00-3.631 13.203 66.095 66.095 0 00-1.326 16.075c.488 10.376 3.922 20.728 11.058 28.445a33.052 33.052 0 0013.812 9.099 117.338 117.338 0 00-8.169 13.55q-.537 1.05-1.054 2.107a29.148 29.148 0 01-19.785-7.876zm88.599 3.341c.256 1.207-.529 2.316-1.134 3.29a45.662 45.662 0 01-3.51 4.875 44.438 44.438 0 01-19.87 13.855 36.361 36.361 0 01-23.63-.047c-8.37-2.933-15.735-8.9-19.543-17a.436.436 0 00-.28-.244c.127.037 3.93-7.28 4.333-7.957a114.3 114.3 0 015.26-8.037 48.779 48.779 0 0045.735 15.444 47.606 47.606 0 0012.581-4.37c.023.064.04.127.058.191zm12.819-17.512a29.45 29.45 0 01-4.905 5.21c-2.062 1.513-4.26.715-6.124-.676a76.814 76.814 0 01-5.797-5.185q-3.214-2.948-6.444-5.884l-3.163-2.88a.426.426 0 00-.648.165 18.277 18.277 0 003.835 19.069 16.991 16.991 0 003.94 3.108c1.617.913 3.446 1.45 4.955 2.564a4.254 4.254 0 011.316 1.432 49.506 49.506 0 01-22.787 5.081 47.417 47.417 0 01-23.882-7.067 49.724 49.724 0 01-11.077-9.261c3.223-4.464 6.723-8.731 10.332-12.887q5.387-6.207 11.152-12.066c7.25-7.41 14.74-14.586 21.93-22.058a26.992 26.992 0 006.592 6.069 63.384 63.384 0 007.694 4.478 72.468 72.468 0 0016.539 5.743 73.356 73.356 0 009.579 1.51 77.846 77.846 0 01-13.037 23.535zm18.65-53.194a105.568 105.568 0 01-5.16 28.336c-.1.304-.209.605-.313.913a88.596 88.596 0 01-16.727-3.655 69.06 69.06 0 01-15.731-7.483 27.86 27.86 0 01-7.582-6.768q1.612-1.679 3.2-3.376c3.43-3.682 6.765-7.463 9.928-11.38a31.422 31.422 0 007.618 1.46 19.892 19.892 0 006.774-1.023 32.837 32.837 0 0012.589-8.024 35.954 35.954 0 004.992-6.25 131.154 131.154 0 01.411 17.25zm-1.656-29.343c.44 3.74.856 7.472 1.176 11.208A37.786 37.786 0 01139.08 52.73a24.235 24.235 0 01-12.772 4.563 30.814 30.814 0 01-8.07-1.282 134.038 134.038 0 0011.52-16.653c6.218-10.747 10.66-22.378 15.84-33.631q.872-1.89 1.78-3.766l.305-.105c-1.234 9.557-.22 19.193.898 28.708z"/><path d="M71.398 56.702c-1.667-.676-3.892-.887-5.41.263-1.735 1.314-1.76 3.737-1.565 5.7a42.182 42.182 0 004.672 15.38c1.16 2.206 2.563 4.49 4.724 5.842a5.68 5.68 0 006.254.039 8.028 8.028 0 003.357-5.987 17.831 17.831 0 00-1.51-7.785c-2.001-5.258-4.982-11.198-10.522-13.452zm9.224 12.6c1.694 4.148 3.604 9.867-.277 13.439a4.936 4.936 0 01-5.88.696c-2.068-1.145-3.493-3.266-4.627-5.282a38.805 38.805 0 01-3.83-9.336 34.421 34.421 0 01-1.129-5.98 7.257 7.257 0 01.5-3.583c1.001-2.173 3.16-2.617 5.275-1.875 5.113 1.804 8.048 7.221 9.968 11.926zm38.716 17.334a8.616 8.616 0 00-6.823-.561 5.382 5.382 0 00-3.484 4.819c-.116 2.697 1.44 5.089 3.151 7.037a20.253 20.253 0 004.266 3.676 14.45 14.45 0 004.417 2.186 8.373 8.373 0 006.744-.532 5.3 5.3 0 002.342-5.694c-.51-2.54-2.353-4.579-4.159-6.325a24.33 24.33 0 00-6.454-4.606zm9.18 9.602a4.9 4.9 0 01-.693 5.741c-1.61 1.519-3.946 1.68-6.021 1.298a15.184 15.184 0 01-7.21-3.719c-.08-.073-.162-.144-.242-.218l-.103-.096c-.212-.2-.42-.406-.628-.616a13.15 13.15 0 01-3.65-5.837 4.866 4.866 0 011.817-5.332 6.807 6.807 0 016.09-.365 20.502 20.502 0 015.83 3.593 17.302 17.302 0 014.81 5.55z"/></g></svg>