<svg xmlns="http://www.w3.org/2000/svg" width="20.004" height="20"><path d="M10.005 4.872A5.128 5.128 0 1015.133 10a5.12 5.12 0 00-5.128-5.128zm0 8.461a3.334 3.334 0 113.334-3.334 3.34 3.34 0 01-3.334 3.334zm6.533-8.671a1.2 1.2 0 11-1.2-1.2 1.193 1.193 0 011.2 1.2zm3.4 1.214a5.919 5.919 0 00-1.616-4.191A5.958 5.958 0 0014.131.069c-1.651-.094-6.6-.094-8.252 0a5.949 5.949 0 00-4.193 1.612A5.938 5.938 0 00.07 5.872c-.094 1.651-.094 6.6 0 8.252a5.919 5.919 0 001.616 4.191 5.965 5.965 0 004.191 1.616c1.651.094 6.6.094 8.252 0a5.919 5.919 0 004.191-1.616 5.958 5.958 0 001.616-4.191c.094-1.651.094-6.6 0-8.247zm-2.133 10.019a3.375 3.375 0 01-1.9 1.9c-1.317.522-4.44.4-5.9.4s-4.583.116-5.9-.4a3.375 3.375 0 01-1.9-1.9c-.522-1.317-.4-4.44-.4-5.9s-.116-4.583.4-5.9a3.375 3.375 0 011.9-1.9c1.317-.522 4.44-.4 5.9-.4s4.583-.116 5.9.4a3.375 3.375 0 011.9 1.9c.522 1.317.4 4.44.4 5.9s.118 4.588-.4 5.9z" fill="#fff"/></svg>