<svg xmlns="http://www.w3.org/2000/svg" width="180" height="104.236"><path d="M17.316 38.764a16.579 16.579 0 01-5.461-11.855C11.855 19.582 23.845 0 47.288 0c13.454 0 17.451 10.79 17.583 13.322a10.086 10.086 0 016.663-2.133c4.4 0 11.987 2.664 16.917 25.309 0 0 16.251-5.194 18.117 16.653s-12.521 36.9-22.78 36.9-64.531-.666-64.531 0C8.793 90.051.001 72.735.001 58.751s11.987-20.779 17.316-19.98" fill="#006f3f"/><path d="M106.613 60.171a44.58 44.58 0 00-.047-7.016C104.7 31.308 88.449 36.502 88.449 36.502c-.194-.886-.39-1.737-.593-2.565-3.022-3.072-11.306-10.253-22.722-10.359-14.515-.132-15.983 13.993-20.243 14.388s-3.73-7.06-14.519-6S18.648 53.551 9.191 53.551c-3.659 0-5.7-2.133-6.834-4.751a21.3 21.3 0 00-2.356 9.945c0 .472.012.945.029 1.423H.001c0 24.338 23.91 44.069 53.4 44.069s53.409-19.731 53.409-44.066z" fill="#005331"/><path d="M23.484 32.663c4.293-4.83 11.477-6.127 17.53-4.3a20.835 20.835 0 0113.683 13.17 16.946 16.946 0 01.869 7.148c.88.109 1.755.264 2.62.458a20.406 20.406 0 013.442-6.051c-2.9-4.545-5.162-10.059-.8-14.59s11.476-4.008 15.7.358c2.512 2.6 4.02 6.611 4.8 10.608a13.669 13.669 0 016.664 10.743c.282 6.594-4.572 12.5-10.52 14.854a18.505 18.505 0 01-2.729.842 22.355 22.355 0 01-1.773 12.341c-1.585 3.51-4.138 7.368-7.327 8.12a3.875 3.875 0 01-.874.2c-5.775.584-11.667 2.069-17.466 1.916-5.578-.147-8.871-3.612-12.169-8.483a20.466 20.466 0 01-2.441-17.856c-5.355-1.837-9.331-6.347-11.427-11.532-2.374-5.878-2.157-13.026 2.218-17.947" fill="#1f995c"/><path d="M43.503 39.585c.032.279.335.555.616.355.942-.663 1.907-1.291 2.858-1.943.329-.226.032-.754-.32-.543-.663.393-1.323.8-1.984 1.2a7.348 7.348 0 001.191-2.127c.091-.273-.346-.458-.47-.2a19.467 19.467 0 01-1.139 2.148 7.936 7.936 0 00-.8-2.738c-.235-.452-1.009-.129-.828.349a13.828 13.828 0 01.876 3.499zm-8.386-2.024c.208.161.484-.023.555-.226a8.417 8.417 0 00.393-4.14c-.05-.32-.6-.241-.566.076a7.945 7.945 0 01-.1 2.18 3.611 3.611 0 00-1.095-2.122.172.172 0 00-.27.208 7.658 7.658 0 011.092 3.025 17.059 17.059 0 01-2.116-2.177c-.326-.4-.892.17-.569.572a15.373 15.373 0 002.676 2.604zm-6.313 7.327a.384.384 0 00.654 0q1.039-1.769 2.072-3.536a.259.259 0 00-.446-.261q-.735 1.1-1.473 2.21a12.7 12.7 0 00.164-3.216.245.245 0 00-.478-.065 14.67 14.67 0 00-.3 3.659 14.382 14.382 0 00-1.714-2.617c-.223-.246-.713.015-.584.34a21.067 21.067 0 002.105 3.486zm9.61 1.74a.37.37 0 00.666-.085c.522-1.276 1.194-2.491 1.723-3.765.088-.211-.246-.332-.358-.15-.47.772-.889 1.576-1.32 2.371-.029-.913-.05-1.84-.158-2.729-.029-.241-.42-.352-.47-.062a8.052 8.052 0 00.3 3.4l-.026.047a42.76 42.76 0 00-1.453-2.934c-.246-.452-.88-.053-.678.4a40.85 40.85 0 001.774 3.507zm8.701-1.523c-.079-.273-.525-.226-.5.068.079 1.053.241 2.072.244 3.137a31.6 31.6 0 00-1.937-3.316.37.37 0 00-.64.373 37.624 37.624 0 002.427 4.114.343.343 0 00.616-.079 30.878 30.878 0 001.133-3.662.229.229 0 00-.44-.123c-.276.763-.54 1.526-.822 2.28a6.711 6.711 0 00-.081-2.792zm-10.127 8.589l-.006-.029A11.979 11.979 0 0035.75 50.1a.216.216 0 00-.393.164c.141.649.314 1.285.481 1.919a17.06 17.06 0 00-1.6-1.769c-.188-.176-.534.062-.37.285a23.257 23.257 0 002.221 2.48c.044.188.091.376.129.563-1.089-.349-2.13-.8-3.219-1.133a.371.371 0 00-.285.675 12.17 12.17 0 003.906 1.394.39.39 0 00.475-.475c-.031-.169-.072-.339-.107-.509zm17.283 9.699a.369.369 0 00.572.073 15.736 15.736 0 002.805-3.322c.114-.188-.167-.414-.308-.238a21.362 21.362 0 01-2.083 2.251 11.085 11.085 0 01.616-3.48c.138-.417-.514-.59-.654-.182a9.261 9.261 0 00-.4 4.044l-.088.079a30.292 30.292 0 01-1.25-3.419.405.405 0 00-.781.214 15.918 15.918 0 001.571 3.98zm-10.545 3.523a512.123 512.123 0 003.959-3.04c.258-.2-.082-.631-.343-.449q-1.563 1.092-3.11 2.2c.288-.493.572-.986.9-1.455a19.113 19.113 0 011.652-1.925.361.361 0 00-.511-.511 10.328 10.328 0 00-2.456 3.559 29.289 29.289 0 01-.038-3.554c.026-.508-.748-.5-.786 0a22.845 22.845 0 00.17 4.944.382.382 0 00.563.231zM61.2 68.611c1.549.646 3.11 1.285 4.686 1.858a.4.4 0 00.5-.379 13.732 13.732 0 00-1.488-5.253c-.1-.176-.4-.056-.329.138a15.8 15.8 0 01.962 3.865 15.254 15.254 0 00-2.644-3.73c-.223-.226-.643.079-.449.346.511.7 1.095 1.35 1.611 2.051.455.616.857 1.268 1.3 1.893-1.3-.549-2.612-1.071-3.926-1.576-.501-.194-.695.587-.223.787zm-9.442 7.405a.364.364 0 00.6.158 19.889 19.889 0 003.163-4.311.226.226 0 00-.39-.229c-.716.989-1.435 1.948-2.221 2.861a35.227 35.227 0 00.998-3.657.351.351 0 00-.675-.188 30.812 30.812 0 00-.954 4.557l-.044.05c-.516-1.344-1.015-2.706-1.623-4.008-.173-.367-.781-.1-.651.276.517 1.521 1.189 3.003 1.797 4.491zm8.709 5.919c1.077-1.086 2.207-2.122 3.269-3.222.211-.217-.1-.519-.326-.326-.587.5-1.162 1.021-1.734 1.546a7.98 7.98 0 00.98-2.776c.056-.381-.508-.558-.593-.164a10.939 10.939 0 01-1.558 3.719 64.422 64.422 0 00-.288-3.633c-.053-.449-.742-.472-.719 0 .073 1.538.223 3.09.4 4.622a.338.338 0 00.569.234zm-19.42-2.474a22 22 0 014.783 2.063.4.4 0 00.576-.446 45.49 45.49 0 00-.2-.684.213.213 0 00-.018-.308c-.032-.026-.062-.056-.094-.079a21.819 21.819 0 00-1.5-3.818.244.244 0 00-.443.188q.453 1.351.874 2.7c-.839-.786-1.608-1.629-2.4-2.491-.241-.264-.716.1-.5.387a16.3 16.3 0 003.181 3.049c.035.126.079.249.112.376a19.924 19.924 0 00-4.158-1.714.403.403 0 00-.213.777zm37.302-28.03c.81-.719 1.643-1.411 2.444-2.142.264-.238-.114-.59-.379-.381-.569.446-1.124.91-1.681 1.37a9.086 9.086 0 00.376-1.224 8.226 8.226 0 00.324-1.651c.006-.22-.343-.337-.437-.12a7.961 7.961 0 00-.411 1.632 7.013 7.013 0 00-.191 1.637l-.041.032a25.435 25.435 0 00-.8-4.27c-.109-.346-.675-.3-.654.088a31.266 31.266 0 00.895 4.889.33.33 0 00.555.14zm-9.513-.668c1.511-.918 3.034-1.819 4.551-2.726a.238.238 0 00-.241-.411q-1.871 1.039-3.741 2.075a17.9 17.9 0 001.737-2.882c.109-.249-.211-.566-.414-.317a18.418 18.418 0 00-1.863 3.028 6.514 6.514 0 01.282-2.735c.147-.461-.56-.643-.719-.2a6.265 6.265 0 00-.07 3.967.33.33 0 00.478.201zm4.237 7.608c1.441-.364 2.911-.607 4.352-.98.252-.065.138-.414-.106-.381-.98.132-1.951.314-2.923.487a40.065 40.065 0 002.776-1.963c.3-.229.018-.742-.305-.519a38.242 38.242 0 00-3.328 2.6 22.01 22.01 0 001.3-3.313.324.324 0 00-.59-.249 28.574 28.574 0 00-1.573 3.923c-.093.24.174.451.397.395zm-4.654-.531c.98-.56 2.01-1.042 3.008-1.57.267-.144.032-.519-.232-.4-.877.393-1.743.819-2.623 1.2v-.044c.4-.59.772-1.212 1.174-1.808.428-.631.948-1.224 1.326-1.884a.3.3 0 00-.464-.358 12.553 12.553 0 00-2.072 3.146c-.038-.968-.1-1.943-.164-2.905-.032-.511-.828-.511-.8 0 .1 1.473.17 2.964.373 4.428a.322.322 0 00.474.195zm.595-21.494a.332.332 0 00.516.068 8.312 8.312 0 001.946-3.6.236.236 0 00-.455-.126 10.051 10.051 0 01-1.379 2.538 18.3 18.3 0 00.308-2.929c0-.285-.449-.358-.5-.067a18.528 18.528 0 00-.258 2.94 49.096 49.096 0 00-1.144-2.339c-.214-.4-.772-.05-.6.346.477 1.077 1.032 2.121 1.566 3.169zm2.544 3.23c.012.205.258.411.458.261a16.16 16.16 0 012.582-1.561c.276-.132.035-.516-.235-.4a15.808 15.808 0 00-1.916 1c.64-.9 1.3-1.8 1.855-2.761.164-.288-.252-.516-.44-.255-.6.842-1.127 1.752-1.649 2.65a17.845 17.845 0 00-.07-3.049.323.323 0 00-.646 0 24.164 24.164 0 00.061 4.115zm-5.886-.818c.83.458 1.676.886 2.515 1.329.346.179.886.575 1.294.314.39-.249.164-.7.021-1.021-.355-.786-.69-1.582-1.083-2.35-.111-.22-.487-.065-.4.17.173.487.379.962.578 1.438l.106.252a19.015 19.015 0 00-1.866-1.84.267.267 0 00-.376.379 20.461 20.461 0 002.381 2.24.2.2 0 00.211.026c.018.065.012.12-.062.15a5.152 5.152 0 01-.745-.417l-.745-.417c-.5-.276-.989-.56-1.491-.828-.379-.203-.713.364-.338.575z" fill="#161615"/><path d="M83.373 23.333a43.391 43.391 0 10-54.618 66.875.6.6 0 00.194.085 5.894 5.894 0 00.716 1.558.37.37 0 00.094.1.512.512 0 00.467.332c.311.015.625.029.933.047l.992.047c12.369.616 37.235.748 37.235.748h.8c0-.009.607-.041.913-.053a.369.369 0 00.261-.106.655.655 0 00.226.041.676.676 0 00.3-.07 43.4 43.4 0 0024.2-38.919 43.105 43.105 0 00-12.713-30.685zm-53.148 67.87c-.021 0-.032.006-.053.006a8.48 8.48 0 01-.384-1.532.706.706 0 00-.029-.223 9.5 9.5 0 01.112-2.773 255.257 255.257 0 0041.56.514 6.716 6.716 0 01-.223 4.6.658.658 0 00-.282.5c-13.576-.392-27.13-.397-40.702-1.09zm-.3-57.893c12.375-7.377 29.06 8.494 19.332 20.317a16.423 16.423 0 00-10.681 6.362.6.6 0 00-.205-.088 17.446 17.446 0 01-12.565-9.974c-2.601-5.813-1.706-13.147 4.116-16.615zm24.429 21.461c6.758 1 13.425 5.435 14.957 12.43a25.717 25.717 0 01.5 6.286c-.205.2-.4.393-.6.59a.368.368 0 00.261.616l.273.038c-.323 4.278-1.544 8.674-3.709 11.744-5.088.018-10.182.141-15.271.056-3.718-.062-7.433-.22-11.145-.39a.568.568 0 00-.041-.161c-3.16-6.69-5.256-14.091-2.318-21.277 2.888-7.07 9.461-11.061 17.093-9.932zm13.049-10.525c3.894-2.08 9.857-2.371 13.1 1.042 3.392 3.577 2.931 8.968.12 12.686-2.732 3.609-7.043 5.191-11.412 5.675a17.593 17.593 0 00-8.252-8 .439.439 0 00.39-.493 11.262 11.262 0 016.054-10.91zm-.323-15.884a.378.378 0 00.065-.616 1.09 1.09 0 01.49-1.931c1.185-.141 1.347 1.194 1.444 2.057a.265.265 0 00.455.179.306.306 0 00.326-.276c.132-.783.425-2.415 1.567-2.195 1.209.235.8 1.931.754 2.747a.233.233 0 00.161.22l-.006.021c-.1.267.261.425.446.258.323-.293.528-.719.945-.907.543-.244.918.062.839.657a2.392 2.392 0 01-1.429 1.781.293.293 0 00-.088.068 6.8 6.8 0 00-5.094-.951 7.134 7.134 0 00-2.3.866l-.041-.021c-.916-.217-1.8-1.051-1.268-2.057a1.184 1.184 0 012.2.246c.091.288.569.249.543-.073zm.094 2.394a6.4 6.4 0 017.483 2.632c1.552 2.368 1.312 5.226.244 7.712a.348.348 0 00-.009.276 13.294 13.294 0 00-7.656 1.769.36.36 0 00-.079-.1c-3.753-3.183-6.068-10.073.018-12.289zm21.054 45.75A42.231 42.231 0 0172.37 91.181a6.69 6.69 0 00-.05-4.184.3.3 0 00-.252-.478c-1.714-.038-3.43-.05-5.144-.05 2-2.667 2.752-5.731 3.216-9.094.114-.836.226-1.684.317-2.538 1.033.17 2.06.387 3.1.519.226.026.252-.329.05-.384-.872-.249-1.758-.44-2.638-.646.872-.27 1.761-.534 2.588-.877.223-.091.229-.5-.065-.469a7.839 7.839 0 00-2.955 1.048l.012-.132a42.442 42.442 0 002.133-1.916c.37-.358-.182-.866-.563-.549-.5.414-1 .845-1.485 1.288a19.258 19.258 0 00-.974-8.02c-.041-.106-.091-.205-.135-.311 5.347-.305 10.6-2.571 13.187-7.533a11.464 11.464 0 001.077-7.7l.018-.009c1.171-.731 2.424-1.32 3.6-2.048.2-.12-.006-.411-.2-.329-.833.352-1.643.757-2.459 1.15.508-.757 1.036-1.52 1.464-2.3.117-.214-.132-.531-.343-.329a8.123 8.123 0 00-1.749 2.931l-.047.026c.217-1.068.4-2.157.537-3.231.065-.511-.684-.558-.781-.073-.188.91-.346 1.843-.472 2.773a9.731 9.731 0 00-2.045-3.234 9.977 9.977 0 00-5.822-3.034 8.607 8.607 0 00-1.849-10.584c1.153-.431 2.309-2.031 1.623-3.213-.593-1.021-1.693-.6-2.386.1.279-1.165.12-2.609-1.2-2.946-1.106-.282-1.778.461-2.169 1.362a1.88 1.88 0 00-.352-.61 1.906 1.906 0 00-1.9-.528 1.841 1.841 0 00-1.347 1.922 1.878 1.878 0 00-2.039.59 2.261 2.261 0 00.889 3.436 6.721 6.721 0 00-2.444 4.56c-.311 3.307 1.585 6.118 3.967 8.2-3.821 2.532-6.526 6.784-6 11.427a.557.557 0 00.062.194 22.125 22.125 0 00-4.192-1.425c.481-1.086 1.042-2.136 1.5-3.237.088-.211-.246-.332-.355-.15-.47.772-.889 1.576-1.323 2.371-.029-.913-.05-1.84-.158-2.726-.029-.244-.42-.355-.469-.065a8.1 8.1 0 00.3 3.4l-.026.047a42.728 42.728 0 00-1.45-2.934c-.249-.452-.883-.053-.678.4.4.883.83 1.769 1.291 2.629l-.34-.056a18 18 0 00-4.017-.123c4.205-4.572 3.771-11.7-.038-16.532a17.661 17.661 0 00-7.107-5.3c.954-.819 1.981-1.555 2.92-2.389.173-.153-.076-.4-.252-.293-.763.49-1.491 1.03-2.227 1.555.373-.833.76-1.676 1.051-2.524.079-.229-.223-.5-.393-.261a8.038 8.038 0 00-1.234 3.188l-.044.032a43.598 43.598 0 00-.021-3.275c-.023-.514-.769-.434-.783.062a41.266 41.266 0 00.044 3.551 16.028 16.028 0 00-11.028-.032c-.387-1.2-.672-2.438-1.077-3.633-.073-.217-.4-.085-.367.123.156.889.37 1.769.569 2.653-.625-.666-1.25-1.35-1.916-1.946-.182-.161-.549.012-.4.261a8.038 8.038 0 002.465 2.362l.012.053a42.209 42.209 0 00-3.025-1.247c-.484-.179-.7.54-.249.742.907.414 1.846.8 2.788 1.156-6.142 3.075-8.225 10.247-6.23 16.656.135.437.291.866.458 1.291-.962-.32-1.913-.678-2.89-.957-.22-.065-.3.282-.109.37.825.379 1.67.7 2.509 1.042-.9.135-1.822.261-2.691.47-.238.059-.3.458-.012.475a8.094 8.094 0 003.345-.684l.05.021a43.084 43.084 0 00-2.747 1.778c-.423.3.047.88.47.628a44.415 44.415 0 002.7-1.752 18.289 18.289 0 0012.9 9.863 18.862 18.862 0 00-1.485 2.691 20.913 20.913 0 00-1.778 8.354c-.452-1.18-.8-2.4-1.268-3.574-.085-.211-.408-.065-.358.144.2.88.461 1.749.707 2.62-.66-.634-1.32-1.282-2.019-1.843-.188-.153-.546.038-.379.282a8.049 8.049 0 002.585 2.227l.015.053a42.375 42.375 0 00-3.087-1.086c-.493-.153-.669.575-.208.757 1.209.475 2.474.913 3.721 1.271a.331.331 0 00.293-.044 29.47 29.47 0 003.686 13.234c-2.937-.135-5.875-.273-8.815-.373a.426.426 0 00-.434.558 5.829 5.829 0 00-.379 2.266 42.054 42.054 0 1159.563-12.026zm30.164-56.575h-15.91v70.825h7.53V27.399h2.98v63.357h7.533V22.061a2.13 2.13 0 00-2.13-2.13m59.419 0h-13.775a2.13 2.13 0 00-2.13 2.13v68.695h7.53V59.637h2.975v31.119h7.53V22.061a2.13 2.13 0 00-2.13-2.13m-5.4 31.475h-2.975V27.399h2.975zm-49.627-29.728h7.526v69.078h-7.526zm29.319-1.747v63.357h-2.971V19.931h-6.047v63.357h-2.972V19.931h-7.533v68.7a2.129 2.129 0 002.127 2.127h22.792a2.136 2.136 0 002.133-2.138V19.931z" fill="#161615"/><path d="M102.482 96.038h.446l.918 2.259.921-2.259h.437l-1.185 2.744h-.358zm9.351 2.432a1.123 1.123 0 00.857-.384l.252.226a1.4 1.4 0 01-1.121.511 1.425 1.425 0 01-.053-2.843 1.3 1.3 0 011.271 1.444 1.336 1.336 0 01-.006.141h-2.16a.952.952 0 00.96.905zm.8-1.232a.9.9 0 00-.872-.916.941.941 0 00-.883.916zm6.064-1.2h.408v.71a1.166 1.166 0 011.109-.757v.437h-.033a1.1 1.1 0 00-1.08 1.247v1.086h-.408zm6.814 1.37v-.009a1.338 1.338 0 011.3-1.417 1.23 1.23 0 011.042.581v-1.646h.4v3.844h-.4v-.549a1.226 1.226 0 01-1.042.607 1.329 1.329 0 01-1.3-1.411zm2.362-.009v-.012a1.014 1.014 0 00-.986-1.048.961.961 0 00-.96 1.048v.012a.981.981 0 00.96 1.053 1.019 1.019 0 00.986-1.053zm7.444 1.071a1.123 1.123 0 00.857-.384l.255.226a1.413 1.413 0 01-1.124.511 1.425 1.425 0 01-.053-2.843 1.3 1.3 0 011.271 1.444 1.334 1.334 0 01-.006.141h-2.16a.952.952 0 00.96.905zm.8-1.232a.892.892 0 00-.869-.916.941.941 0 00-.886.916zm12.737.801v-1.643h-.379v-.358h.379v-.822h.4v.822h.866v.358h-.866v1.59a.4.4 0 00.461.452.858.858 0 00.393-.094v.346a.985.985 0 01-.49.117.694.694 0 01-.764-.768zm8.058.431a1.123 1.123 0 00.857-.384l.252.226a1.4 1.4 0 01-1.121.511 1.425 1.425 0 01-.053-2.843 1.3 1.3 0 011.271 1.444 1.337 1.337 0 01-.006.141h-2.16a.952.952 0 00.96.905zm.8-1.232a.892.892 0 00-.869-.916.941.941 0 00-.886.916zm6.067-1.2h.4v.71a1.166 1.166 0 011.109-.757v.437h-.029a1.1 1.1 0 00-1.08 1.247v1.086h-.4zm7.08 0h.4v.71a1.17 1.17 0 011.112-.757v.437h-.032a1.1 1.1 0 00-1.08 1.247v1.086h-.4zm6.746 1.933v-.012c0-.584.472-.889 1.162-.889a2.9 2.9 0 01.833.114v-.085c0-.484-.3-.737-.807-.737a1.867 1.867 0 00-.825.2l-.123-.332a2.227 2.227 0 01.992-.232 1.194 1.194 0 01.877.3 1.069 1.069 0 01.285.8v1.662h-.4v-.4a1.2 1.2 0 01-.98.464.914.914 0 01-1.014-.853zm2-.211v-.25a2.781 2.781 0 00-.8-.117c-.508 0-.8.223-.8.549v.009c0 .343.314.543.684.543a.815.815 0 00.917-.734z" fill="#005331"/><path d="M121.772 20.028a2.214 2.214 0 01-.728-1.582c0-.974 1.6-3.583 4.721-3.583a2.237 2.237 0 012.343 1.775 1.354 1.354 0 01.889-.282c.587 0 1.6.355 2.254 3.372 0 0 2.166-.693 2.415 2.218s-1.67 4.915-3.037 4.915-8.6-.088-8.6 0c-1.394 0-2.565-2.306-2.565-4.17a2.526 2.526 0 012.308-2.663" fill="#006f3f"/><path d="M133.671 22.879a6.212 6.212 0 00-.006-.933c-.249-2.911-2.415-2.218-2.415-2.218l-.079-.343a4.484 4.484 0 00-3.025-1.379c-1.937-.018-2.13 1.863-2.7 1.916s-.5-.939-1.934-.8-1.561 2.875-2.824 2.875a.943.943 0 01-.91-.634 2.855 2.855 0 00-.314 1.326v.188c0 3.245 3.187 5.872 7.116 5.872s7.116-2.626 7.116-5.872z" fill="#005331"/></svg>