<svg xmlns="http://www.w3.org/2000/svg" width="20" height="22.857"><path d="M18.57 22.857H1.429a1.363 1.363 0 01-1.016-.424 1.388 1.388 0 01-.413-1v-20A1.382 1.382 0 01.413.413 1.377 1.377 0 011.429 0H18.57a1.392 1.392 0 011 .413 1.362 1.362 0 01.424 1.016v20a1.449 1.449 0 01-1.424 1.428zM2.857 1.429a1.409 1.409 0 00-1.428 1.428V20a1.409 1.409 0 001.429 1.429h10q0-1.339-.067-2.187a8.734 8.734 0 00-.234-1.5 2.3 2.3 0 00-.514-1.016 2.849 2.849 0 00-.815-.6A5.771 5.771 0 0010 15.713a3.6 3.6 0 00-.826-.09 5.237 5.237 0 00-.8.056q-.357.056-.837.178t-.726.2l-.658.212a3.343 3.343 0 00-.436.156L17.834 1.607a1.453 1.453 0 00-.692-.178H2.857zM18.57 2.857a1.457 1.457 0 00-.29-.87l-4.552 19.442h3.415a1.392 1.392 0 001-.413A1.362 1.362 0 0018.57 20z" fill="#fff"/></svg>