<svg xmlns="http://www.w3.org/2000/svg" width="183.265" height="169.692" viewBox="0 0 183.265 169.692"><g transform="matrix(-0.259, -0.966, 0.966, -0.259, 110.39, 157.297)"><g transform="translate(7.589 -76.212)"><path d="M141.466,76.94c-.017-.228-.034-.457-.052-.684a.43.43,0,0,0-.022-.633l-.028-.024c-.449-5.848-.879-11.7-1.368-17.541a45.2,45.2,0,0,0-1.288-8.377,22.8,22.8,0,0,0-4.01-7.788,52.3,52.3,0,0,0-6.322-6.592,21.7,21.7,0,0,1,12.971,3.689c.34.23.907-.084.694-.52A48.707,48.707,0,0,1,137.163,17.8a11.028,11.028,0,0,0-.784-4.716,12.3,12.3,0,0,0-3.659-3.914A57.485,57.485,0,0,0,114.645-.575a22.967,22.967,0,0,1,20.3,3.043.479.479,0,0,0,.736-.551A80.884,80.884,0,0,1,131.9-11.06c-.438-2.177-.78-4.372-1.041-6.577a18.582,18.582,0,0,0-1.4-6.134c-1.8-3.648-5.6-5.768-9.245-7.192a35.225,35.225,0,0,0-10.948-2.352A35.38,35.38,0,0,0,97.714-32c1.386-4.359,5.779-7.154,10.136-7.939,5.214-.939,10.515.524,15.5,1.953.462.133.93-.442.473-.785-6.564-4.915-9.46-13.028-14.573-19.208A50.541,50.541,0,0,0,93.12-70.771c-12.87-6.511-29.366-7.761-42.227-.541A29.054,29.054,0,0,0,36.583-53.018c-3.98-3.44-8.148-6.655-12.394-9.76-1.289-.942-2.581-1.864-3.916-2.74a.136.136,0,0,0-.168.212c4.793,4.09,9.921,7.777,14.719,11.869.363.309.72.624,1.079.937C19.852-49.454,8.167-34.271,7.613-18.222a44.006,44.006,0,0,0,6.125,23.5,46.3,46.3,0,0,0,3.6,5.308,26.347,26.347,0,0,0,4.086,4.491c3.44,2.714,6.347-1.628,8.315-3.951C35.1,4.806,45.434,3.659,52.125,8.46q-7.389,4.586-14.763,9.2c-1.732,1.084-3.575,2.248-4.634,4.057-1.134,1.937-.694,3.979.357,5.848,4.7,8.347,11.71,15.552,19.291,21.32a100.75,100.75,0,0,0,25.841,14,142.423,142.423,0,0,0,28.893,7.063c10.134,1.514,20.428,2.7,30.14,6.129q1.793.634,3.547,1.372A.485.485,0,0,0,141.466,76.94ZM139.146,57.7c.219,2.971.416,5.945.627,8.918q.288,4.055.575,8.111c-9.054-7.781-18.761-14.79-27.511-22.927a125.6,125.6,0,0,1-12.369-13.39,39.672,39.672,0,0,1,16.5.931,37.417,37.417,0,0,1,15.647,8.909,44.364,44.364,0,0,1,6.39,7.789Q139.085,56.866,139.146,57.7Zm1.432-20.24a22.207,22.207,0,0,0-13.333-2.971.446.446,0,0,0-.219.784c4.477,3.942,8.956,8.263,10.779,14.116a30.2,30.2,0,0,1,1.109,5.732,36.626,36.626,0,0,0-12.423-12.287,38.916,38.916,0,0,0-16.709-5.5,36.518,36.518,0,0,0-9.8.461c-3.624-4.562-6.986-9.337-10.157-14.241C86.7,18.727,83.761,13.8,80.876,8.839c7.629-4.623,17.569-2.65,25.466.212a65.69,65.69,0,0,1,23.646,15.291,96.176,96.176,0,0,1,10.23,12.284C140.336,36.9,140.455,37.18,140.579,37.455ZM113.022-.978c-.338.136-.412.739-.011.858a57.152,57.152,0,0,1,18.138,9.106,17.191,17.191,0,0,1,4.019,3.656c1.073,1.563,1.118,3.443,1.144,5.271a49.943,49.943,0,0,0,1.159,10.216,48.647,48.647,0,0,0,1.825,6.18,75.126,75.126,0,0,0-7.747-9.388,70.517,70.517,0,0,0-11.542-9.7,62.81,62.81,0,0,0-12.292-6.411A49.166,49.166,0,0,0,94.342,5.54c-4.76-.4-9.69.176-13.845,2.651C77.4,2.859,74.375-2.511,71.274-7.837q-2.7-4.644-5.514-9.236A35.408,35.408,0,0,1,79-25.487a35.169,35.169,0,0,1,15.265-1.7,40.632,40.632,0,0,1,13.976,4.18,56.314,56.314,0,0,1,13.187,9.747c2.336,2.222,4.579,4.548,6.8,6.882A34.554,34.554,0,0,1,133.637.512,23.8,23.8,0,0,0,113.022-.978Zm8.551-38.446c-4.775-1.289-9.835-2.344-14.7-1.16-4.629,1.127-8.951,4.3-10.125,9.1-.078.317.283.5.538.421a34.82,34.82,0,0,1,21.593.449c3.692,1.3,7.783,3.262,9.715,6.864a16.825,16.825,0,0,1,1.45,6.216c.234,2.1.541,4.193.935,6.271A80.886,80.886,0,0,0,133.915-.2a31.781,31.781,0,0,0-4.3-5.578c-2.006-2.15-4.077-4.248-6.172-6.309a64.7,64.7,0,0,0-13.447-10.652c-8.923-5.008-19.67-6.789-29.584-3.931A30.853,30.853,0,0,0,65.5-17.494,191.844,191.844,0,0,0,51.2-37.95c-.341-.418-.687-.831-1.033-1.245,5.821-8.581,15.471-13.842,25.683-15.123,10.243-1.285,20.595,1.11,29.88,5.4a109.29,109.29,0,0,1,15.752,9.4C121.513-39.484,121.542-39.452,121.573-39.424ZM49.768-69.7a39.554,39.554,0,0,1,22.147-5.685A49.678,49.678,0,0,1,107.751-58.35a80.161,80.161,0,0,1,7.08,10.264,50.413,50.413,0,0,0,4.632,6.488,93.794,93.794,0,0,0-11.811-6.926,66.087,66.087,0,0,0-15.182-5.443c-10.147-2.216-21.034-1.58-30.334,3.314A33.048,33.048,0,0,0,49.772-39.67,117.324,117.324,0,0,0,38.8-51.068q-.874-.79-1.761-1.563A29.145,29.145,0,0,1,49.768-69.7ZM23.6,15c-1.232-.065-2.1-1.11-2.883-1.946a45.657,45.657,0,0,1-3.8-4.653A44.433,44.433,0,0,1,8.682-14.376a36.357,36.357,0,0,1,6.164-22.809c5-7.324,12.67-12.892,21.478-14.472a.436.436,0,0,0,.308-.207c-.068.113,6.014,5.681,6.563,6.244,2.239,2.292,4.362,4.69,6.4,7.161A48.773,48.773,0,0,0,22.837,1.712,47.6,47.6,0,0,0,23.8,14.994C23.732,15,23.667,15,23.6,15ZM37.194,31.915a29.446,29.446,0,0,1-3.763-6.086c-.926-2.383.414-4.3,2.239-5.739a76.805,76.805,0,0,1,6.509-4.256q3.68-2.341,7.351-4.7l3.6-2.309a.426.426,0,0,0,.009-.669A18.275,18.275,0,0,0,33.73,6.922a16.989,16.989,0,0,0-4.022,3c-1.3,1.326-2.292,2.953-3.759,4.122a4.253,4.253,0,0,1-1.724.9,49.5,49.5,0,0,1,.993-23.322A47.411,47.411,0,0,1,38.227-29.613a49.718,49.718,0,0,1,11.813-8.3c3.476,4.269,6.691,8.754,9.77,13.315q4.6,6.81,8.766,13.895C73.854-1.782,78.845,7.31,84.2,16.188a26.989,26.989,0,0,0-7.568,4.795,63.376,63.376,0,0,0-6.317,6.271,72.459,72.459,0,0,0-9.829,14.486A73.347,73.347,0,0,0,56.548,50.6,77.837,77.837,0,0,1,37.194,31.915ZM83.738,63.7A105.555,105.555,0,0,1,57.707,51.381c-.267-.177-.53-.359-.8-.539a88.586,88.586,0,0,1,7.861-15.209,69.052,69.052,0,0,1,11.3-13.255,27.857,27.857,0,0,1,8.5-5.569Q85.772,18.8,87,20.773c2.667,4.267,5.456,8.466,8.42,12.535a31.418,31.418,0,0,0-3.383,6.979,19.89,19.89,0,0,0-.766,6.807,32.833,32.833,0,0,0,4.489,14.236,35.95,35.95,0,0,0,4.743,6.439A131.138,131.138,0,0,1,83.738,63.7Zm28.767,6c-3.725-.544-7.438-1.109-11.129-1.767a37.782,37.782,0,0,1-7.817-13.149,24.232,24.232,0,0,1-1.1-13.516,30.81,30.81,0,0,1,3.328-7.461,134.022,134.022,0,0,0,13.1,15.437c8.769,8.788,18.852,16.089,28.378,24.007q1.6,1.331,3.176,2.694l.023.321C131.553,72.6,121.985,71.083,112.506,69.7Z" transform="translate(-7.589 76.212)" fill="#e55b3f"/><path d="M138.2,12.769c1.085-1.434,1.865-3.528,1.147-5.293-.82-2.015-3.153-2.667-5.1-2.987a42.177,42.177,0,0,0-16.063.53c-2.431.549-5,1.312-6.865,3.05a5.679,5.679,0,0,0-1.657,6.029,8.027,8.027,0,0,0,4.913,4.793,17.829,17.829,0,0,0,7.909.557C128.08,18.877,134.589,17.536,138.2,12.769Zm-14.557,5.646c-4.444.562-10.462.926-12.907-3.747a4.935,4.935,0,0,1,.85-5.86c1.642-1.7,4.059-2.527,6.3-3.1a38.8,38.8,0,0,1,10.008-1.281,34.417,34.417,0,0,1,6.067.458,7.256,7.256,0,0,1,3.331,1.41c1.84,1.53,1.71,3.729.445,5.58C134.671,16.346,128.679,17.778,123.638,18.414Z" transform="translate(-38.541 51.833)" fill="#e55b3f"/><path d="M83.35,67.045A8.615,8.615,0,0,0,85.659,60.6a5.381,5.381,0,0,0-3.752-4.612c-2.575-.811-5.287.072-7.612,1.221a20.251,20.251,0,0,0-4.655,3.168,14.449,14.449,0,0,0-3.255,3.7,8.372,8.372,0,0,0-1.232,6.651,5.3,5.3,0,0,0,4.892,3.736c2.585.164,5.032-1.087,7.186-2.379A24.328,24.328,0,0,0,83.35,67.045ZM71.7,73.425a4.9,4.9,0,0,1-5.365-2.157c-1.05-1.947-.6-4.246.305-6.151a15.182,15.182,0,0,1,5.459-6c.091-.059.181-.119.273-.177l.12-.075c.248-.153.5-.3.757-.447a13.148,13.148,0,0,1,6.582-2.013,4.865,4.865,0,0,1,4.679,3.135,6.806,6.806,0,0,1-1.224,5.976,20.5,20.5,0,0,1-4.98,4.7A17.3,17.3,0,0,1,71.7,73.425Z" transform="translate(-25.014 36.106)" fill="#e55b3f"/></g></g></svg>