<svg xmlns="http://www.w3.org/2000/svg" width="180" height="104.236" viewBox="0 0 180 104.236"><path d="M33.182,61.436a16.579,16.579,0,0,1-5.461-11.855c0-7.327,11.99-26.909,35.433-26.909,13.454,0,17.451,10.79,17.583,13.322A10.086,10.086,0,0,1,87.4,33.861c4.4,0,11.987,2.664,16.917,25.309,0,0,16.251-5.194,18.117,16.653s-12.521,36.9-22.78,36.9-64.531-.666-64.531,0c-10.464,0-19.256-17.316-19.256-31.3s11.987-20.779,17.316-19.98" transform="translate(-15.866 -22.672)" fill="#006f3f"/><path d="M122.479,67.3a44.58,44.58,0,0,0-.047-7.016c-1.866-21.847-18.117-16.653-18.117-16.653-.194-.886-.39-1.737-.593-2.565C100.7,37.994,92.416,30.813,81,30.707,66.485,30.575,65.017,44.7,60.757,45.095s-3.73-7.06-14.519-6S34.514,60.68,25.057,60.68c-3.659,0-5.7-2.133-6.834-4.751a21.3,21.3,0,0,0-2.356,9.945c0,.472.012.945.029,1.423h-.029c0,24.338,23.91,44.069,53.4,44.069S122.676,91.635,122.676,67.3Z" transform="translate(-15.866 -7.129)" fill="#005331"/><path d="M26.324,38.636c4.293-4.83,11.477-6.127,17.53-4.3a20.835,20.835,0,0,1,13.683,13.17,16.946,16.946,0,0,1,.869,7.148c.88.109,1.755.264,2.62.458a20.406,20.406,0,0,1,3.442-6.051c-2.9-4.545-5.162-10.059-.8-14.59s11.476-4.008,15.7.358c2.512,2.6,4.02,6.611,4.8,10.608a13.669,13.669,0,0,1,6.664,10.743c.282,6.594-4.572,12.5-10.52,14.854a18.505,18.505,0,0,1-2.729.842A22.355,22.355,0,0,1,75.81,84.217c-1.585,3.51-4.138,7.368-7.327,8.12a3.875,3.875,0,0,1-.874.2c-5.775.584-11.667,2.069-17.466,1.916-5.578-.147-8.871-3.612-12.169-8.483a20.466,20.466,0,0,1-2.441-17.856c-5.355-1.837-9.331-6.347-11.427-11.532-2.374-5.878-2.157-13.026,2.218-17.947" transform="translate(-2.84 -5.973)" fill="#1f995c"/><path d="M31.284,38.841c.032.279.335.555.616.355.942-.663,1.907-1.291,2.858-1.943.329-.226.032-.754-.32-.543-.663.393-1.323.8-1.984,1.2a7.348,7.348,0,0,0,1.191-2.127c.091-.273-.346-.458-.47-.2a19.467,19.467,0,0,1-1.139,2.148,7.936,7.936,0,0,0-.8-2.738c-.235-.452-1.009-.129-.828.349A13.828,13.828,0,0,1,31.284,38.841Z" transform="translate(12.219 0.744)" fill="#161615"/><path d="M29.659,38.485c.208.161.484-.023.555-.226a8.417,8.417,0,0,0,.393-4.14c-.05-.32-.6-.241-.566.076a7.945,7.945,0,0,1-.1,2.18,3.611,3.611,0,0,0-1.095-2.122.172.172,0,0,0-.27.208,7.658,7.658,0,0,1,1.092,3.025,17.059,17.059,0,0,1-2.116-2.177c-.326-.4-.892.17-.569.572A15.373,15.373,0,0,0,29.659,38.485Z" transform="translate(5.458 -0.924)" fill="#161615"/><path d="M27.085,41.294a.384.384,0,0,0,.654,0q1.039-1.769,2.072-3.536a.259.259,0,0,0-.446-.261q-.735,1.1-1.473,2.21a12.7,12.7,0,0,0,.164-3.216.245.245,0,0,0-.478-.065,14.67,14.67,0,0,0-.3,3.659,14.382,14.382,0,0,0-1.714-2.617c-.223-.246-.713.015-.584.34A21.067,21.067,0,0,0,27.085,41.294Z" transform="translate(1.719 3.594)" fill="#161615"/><path d="M30.155,41.59a.37.37,0,0,0,.666-.085c.522-1.276,1.194-2.491,1.723-3.765.088-.211-.246-.332-.358-.15-.47.772-.889,1.576-1.32,2.371-.029-.913-.05-1.84-.158-2.729-.029-.241-.42-.352-.47-.062a8.052,8.052,0,0,0,.3,3.4l-.026.047c-.449-.995-.933-1.984-1.453-2.934-.246-.452-.88-.053-.678.4C28.911,39.266,29.512,40.463,30.155,41.59Z" transform="translate(8.259 5.038)" fill="#161615"/><path d="M33.821,38.231c-.079-.273-.525-.226-.5.068.079,1.053.241,2.072.244,3.137a31.6,31.6,0,0,0-1.937-3.316.37.37,0,0,0-.64.373,37.624,37.624,0,0,0,2.427,4.114.343.343,0,0,0,.616-.079,30.878,30.878,0,0,0,1.133-3.662.229.229,0,0,0-.44-.123c-.276.763-.54,1.526-.822,2.28A6.711,6.711,0,0,0,33.821,38.231Z" transform="translate(13.294 6.874)" fill="#161615"/><path d="M31.4,43.41l-.006-.029a11.979,11.979,0,0,0-1.232-3.565.216.216,0,0,0-.393.164c.141.649.314,1.285.481,1.919a17.06,17.06,0,0,0-1.6-1.769c-.188-.176-.534.062-.37.285a23.257,23.257,0,0,0,2.221,2.48c.044.188.091.376.129.563-1.089-.349-2.13-.8-3.219-1.133a.371.371,0,0,0-.285.675,12.17,12.17,0,0,0,3.906,1.394.39.39,0,0,0,.475-.475C31.476,43.75,31.435,43.58,31.4,43.41Z" transform="translate(5.588 10.284)" fill="#161615"/><path d="M35.4,47.657a.369.369,0,0,0,.572.073,15.736,15.736,0,0,0,2.805-3.322c.114-.188-.167-.414-.308-.238a21.362,21.362,0,0,1-2.083,2.251,11.085,11.085,0,0,1,.616-3.48c.138-.417-.514-.59-.654-.182a9.261,9.261,0,0,0-.4,4.044l-.088.079a30.292,30.292,0,0,1-1.25-3.419.4.4,0,0,0-.781.214A15.918,15.918,0,0,0,35.4,47.657Z" transform="translate(18.871 15.736)" fill="#161615"/><path d="M31.291,49.135c1.323-1.009,2.647-2.019,3.959-3.04.258-.2-.082-.631-.343-.449q-1.563,1.092-3.11,2.2c.288-.493.572-.986.9-1.455a19.113,19.113,0,0,1,1.652-1.925.361.361,0,0,0-.511-.511,10.328,10.328,0,0,0-2.456,3.559,29.289,29.289,0,0,1-.038-3.554c.026-.508-.748-.5-.786,0a22.845,22.845,0,0,0,.17,4.944A.382.382,0,0,0,31.291,49.135Z" transform="translate(12.435 17.781)" fill="#161615"/><path d="M36.9,48.6c1.549.646,3.11,1.285,4.686,1.858a.4.4,0,0,0,.5-.379,13.732,13.732,0,0,0-1.488-5.253c-.1-.176-.4-.056-.329.138a15.8,15.8,0,0,1,.962,3.865,15.254,15.254,0,0,0-2.644-3.73c-.223-.226-.643.079-.449.346.511.7,1.095,1.35,1.611,2.051.455.616.857,1.268,1.3,1.893-1.3-.549-2.612-1.071-3.926-1.576C36.622,47.619,36.428,48.4,36.9,48.6Z" transform="translate(24.3 20.011)" fill="#161615"/><path d="M34.7,52.278a.364.364,0,0,0,.6.158,19.889,19.889,0,0,0,3.163-4.311.226.226,0,0,0-.39-.229c-.716.989-1.435,1.948-2.221,2.861A35.227,35.227,0,0,0,36.85,47.1a.351.351,0,0,0-.675-.188,30.812,30.812,0,0,0-.954,4.557l-.044.05c-.516-1.344-1.015-2.706-1.623-4.008-.173-.367-.781-.1-.651.276C33.42,49.308,34.092,50.79,34.7,52.278Z" transform="translate(17.058 23.738)" fill="#161615"/><path d="M37.111,54.023c1.077-1.086,2.207-2.122,3.269-3.222.211-.217-.1-.519-.326-.326-.587.5-1.162,1.021-1.734,1.546a7.98,7.98,0,0,0,.98-2.776c.056-.381-.508-.558-.593-.164A10.939,10.939,0,0,1,37.149,52.8c-.067-1.212-.153-2.433-.288-3.633-.053-.449-.742-.472-.719,0,.073,1.538.223,3.09.4,4.622A.338.338,0,0,0,37.111,54.023Z" transform="translate(23.356 27.912)" fill="#161615"/><path d="M30.041,51.983a22,22,0,0,1,4.783,2.063A.4.4,0,0,0,35.4,53.6c-.065-.229-.132-.458-.2-.684a.213.213,0,0,0-.018-.308c-.032-.026-.062-.056-.094-.079a21.819,21.819,0,0,0-1.5-3.818.244.244,0,0,0-.443.188q.453,1.351.874,2.7c-.839-.786-1.608-1.629-2.4-2.491-.241-.264-.716.1-.5.387A16.3,16.3,0,0,0,34.3,52.544c.035.126.079.249.112.376a19.924,19.924,0,0,0-4.158-1.714A.4.4,0,0,0,30.041,51.983Z" transform="translate(11.006 27.478)" fill="#161615"/><path d="M43.516,43.728c.81-.719,1.643-1.411,2.444-2.142.264-.238-.114-.59-.379-.381-.569.446-1.124.91-1.681,1.37a9.086,9.086,0,0,0,.376-1.224A8.226,8.226,0,0,0,44.6,39.7c.006-.22-.343-.337-.437-.12a7.961,7.961,0,0,0-.411,1.632,7.013,7.013,0,0,0-.191,1.637l-.041.032a25.435,25.435,0,0,0-.8-4.27c-.109-.346-.675-.3-.654.088a31.266,31.266,0,0,0,.895,4.889A.33.33,0,0,0,43.516,43.728Z" transform="translate(34.833 7.703)" fill="#161615"/><path d="M39.829,42.885c1.511-.918,3.034-1.819,4.551-2.726a.238.238,0,0,0-.241-.411q-1.871,1.039-3.741,2.075a17.9,17.9,0,0,0,1.737-2.882c.109-.249-.211-.566-.414-.317a18.418,18.418,0,0,0-1.863,3.028,6.514,6.514,0,0,1,.282-2.735c.147-.461-.56-.643-.719-.2a6.265,6.265,0,0,0-.07,3.967A.33.33,0,0,0,39.829,42.885Z" transform="translate(29.007 7.878)" fill="#161615"/><path d="M41.043,45.517c1.441-.364,2.911-.607,4.352-.98.252-.065.138-.414-.106-.381-.98.132-1.951.314-2.923.487.954-.61,1.884-1.279,2.776-1.963.3-.229.018-.742-.305-.519a38.242,38.242,0,0,0-3.328,2.6,22.01,22.01,0,0,0,1.3-3.313.324.324,0,0,0-.59-.249,28.574,28.574,0,0,0-1.573,3.923C40.553,45.362,40.82,45.573,41.043,45.517Z" transform="translate(32.03 12.854)" fill="#161615"/><path d="M39.74,45.68c.98-.56,2.01-1.042,3.008-1.57.267-.144.032-.519-.232-.4-.877.393-1.743.819-2.623,1.2l0-.044c.4-.59.772-1.212,1.174-1.808.428-.631.948-1.224,1.326-1.884a.3.3,0,0,0-.464-.358,12.553,12.553,0,0,0-2.072,3.146c-.038-.968-.1-1.943-.164-2.905-.032-.511-.828-.511-.8,0,.1,1.473.17,2.964.373,4.428A.322.322,0,0,0,39.74,45.68Z" transform="translate(28.679 12.16)" fill="#161615"/><path d="M40.44,37.892a.332.332,0,0,0,.516.068,8.312,8.312,0,0,0,1.946-3.6.236.236,0,0,0-.455-.126,10.051,10.051,0,0,1-1.379,2.538,18.3,18.3,0,0,0,.308-2.929c0-.285-.449-.358-.5-.067a18.528,18.528,0,0,0-.258,2.94c-.367-.786-.737-1.576-1.144-2.339-.214-.4-.772-.05-.6.346C39.351,35.8,39.906,36.844,40.44,37.892Z" transform="translate(28.574 -1.546)" fill="#161615"/><path d="M40.338,39.079c.012.205.258.411.458.261a16.16,16.16,0,0,1,2.582-1.561c.276-.132.035-.516-.235-.4a15.808,15.808,0,0,0-1.916,1c.64-.9,1.3-1.8,1.855-2.761.164-.288-.252-.516-.44-.255-.6.842-1.127,1.752-1.649,2.65a17.845,17.845,0,0,0-.07-3.049.323.323,0,0,0-.646,0A24.164,24.164,0,0,0,40.338,39.079Z" transform="translate(31.22 0.497)" fill="#161615"/><path d="M38.354,37.089c.83.458,1.676.886,2.515,1.329.346.179.886.575,1.294.314.39-.249.164-.7.021-1.021-.355-.786-.69-1.582-1.083-2.35-.111-.22-.487-.065-.4.17.173.487.379.962.578,1.438l.106.252a19.015,19.015,0,0,0-1.866-1.84.267.267,0,0,0-.376.379A20.461,20.461,0,0,0,41.524,38a.2.2,0,0,0,.211.026c.018.065.012.12-.062.15a5.152,5.152,0,0,1-.745-.417l-.745-.417c-.5-.276-.989-.56-1.491-.828C38.313,36.311,37.979,36.878,38.354,37.089Z" transform="translate(27.318 1.669)" fill="#161615"/><path d="M93.107,39a43.391,43.391,0,1,0-54.618,66.875.6.6,0,0,0,.194.085,5.894,5.894,0,0,0,.716,1.558.37.37,0,0,0,.094.1.512.512,0,0,0,.467.332c.311.015.625.029.933.047l.992.047c12.369.616,37.235.748,37.235.748h.8c0-.009.607-.041.913-.053a.369.369,0,0,0,.261-.106.655.655,0,0,0,.226.041.676.676,0,0,0,.3-.07,43.4,43.4,0,0,0,24.2-38.919A43.105,43.105,0,0,0,93.107,39Zm-53.148,67.87c-.021,0-.032.006-.053.006a8.48,8.48,0,0,1-.384-1.532.706.706,0,0,0-.029-.223,9.5,9.5,0,0,1,.112-2.773,255.257,255.257,0,0,0,41.56.514,6.716,6.716,0,0,1-.223,4.6.658.658,0,0,0-.282.5C67.084,107.57,53.53,107.565,39.958,106.872Zm-.3-57.893C52.034,41.6,68.719,57.471,58.991,69.294A16.423,16.423,0,0,0,48.31,75.656a.6.6,0,0,0-.205-.088,17.446,17.446,0,0,1-12.565-9.974C32.939,59.781,33.834,52.447,39.656,48.979ZM64.088,70.438c6.758,1,13.425,5.435,14.957,12.43a25.717,25.717,0,0,1,.5,6.286c-.205.2-.4.393-.6.59a.368.368,0,0,0,.261.616l.273.038c-.323,4.278-1.544,8.674-3.709,11.744-5.088.018-10.182.141-15.271.056-3.718-.062-7.433-.22-11.145-.39a.568.568,0,0,0-.041-.161c-3.16-6.69-5.256-14.091-2.318-21.277C49.883,73.3,56.456,69.309,64.088,70.438ZM77.137,59.913c3.894-2.08,9.857-2.371,13.1,1.042,3.392,3.577,2.931,8.968.12,12.686-2.732,3.609-7.043,5.191-11.412,5.675a17.593,17.593,0,0,0-8.252-8,.439.439,0,0,0,.39-.493A11.262,11.262,0,0,1,77.137,59.913Zm-.323-15.884a.378.378,0,0,0,.065-.616,1.09,1.09,0,0,1,.49-1.931c1.185-.141,1.347,1.194,1.444,2.057a.265.265,0,0,0,.455.179.306.306,0,0,0,.326-.276c.132-.783.425-2.415,1.567-2.195,1.209.235.8,1.931.754,2.747a.233.233,0,0,0,.161.22l-.006.021c-.1.267.261.425.446.258.323-.293.528-.719.945-.907.543-.244.918.062.839.657a2.392,2.392,0,0,1-1.429,1.781.293.293,0,0,0-.088.068,6.8,6.8,0,0,0-5.094-.951,7.134,7.134,0,0,0-2.3.866l-.041-.021c-.916-.217-1.8-1.051-1.268-2.057a1.184,1.184,0,0,1,2.2.246c.091.288.569.249.543-.073Zm.094,2.394a6.4,6.4,0,0,1,7.483,2.632c1.552,2.368,1.312,5.226.244,7.712a.348.348,0,0,0-.009.276,13.294,13.294,0,0,0-7.656,1.769.36.36,0,0,0-.079-.1C73.138,55.529,70.823,48.639,76.909,46.423Zm21.054,45.75a42.231,42.231,0,0,1-15.858,14.675,6.69,6.69,0,0,0-.05-4.184.3.3,0,0,0-.252-.478c-1.714-.038-3.43-.05-5.144-.05,2-2.667,2.752-5.731,3.216-9.094.114-.836.226-1.684.317-2.538,1.033.17,2.06.387,3.1.519.226.026.252-.329.05-.384-.872-.249-1.758-.44-2.638-.646.872-.27,1.761-.534,2.588-.877.223-.091.229-.5-.065-.469a7.839,7.839,0,0,0-2.955,1.048l.012-.132c.731-.616,1.453-1.259,2.133-1.916.37-.358-.182-.866-.563-.549-.5.414-1,.845-1.485,1.288a19.258,19.258,0,0,0-.974-8.02c-.041-.106-.091-.205-.135-.311,5.347-.305,10.6-2.571,13.187-7.533a11.464,11.464,0,0,0,1.077-7.7l.018-.009c1.171-.731,2.424-1.32,3.6-2.048.2-.12-.006-.411-.2-.329-.833.352-1.643.757-2.459,1.15.508-.757,1.036-1.52,1.464-2.3.117-.214-.132-.531-.343-.329a8.123,8.123,0,0,0-1.749,2.931l-.047.026c.217-1.068.4-2.157.537-3.231.065-.511-.684-.558-.781-.073-.188.91-.346,1.843-.472,2.773a9.731,9.731,0,0,0-2.045-3.234,9.977,9.977,0,0,0-5.822-3.034,8.607,8.607,0,0,0-1.849-10.584c1.153-.431,2.309-2.031,1.623-3.213-.593-1.021-1.693-.6-2.386.1.279-1.165.12-2.609-1.2-2.946-1.106-.282-1.778.461-2.169,1.362a1.88,1.88,0,0,0-.352-.61,1.906,1.906,0,0,0-1.9-.528,1.841,1.841,0,0,0-1.347,1.922,1.878,1.878,0,0,0-2.039.59,2.261,2.261,0,0,0,.889,3.436,6.721,6.721,0,0,0-2.444,4.56c-.311,3.307,1.585,6.118,3.967,8.2-3.821,2.532-6.526,6.784-6,11.427a.557.557,0,0,0,.062.194A22.125,22.125,0,0,0,65.887,69.6c.481-1.086,1.042-2.136,1.5-3.237.088-.211-.246-.332-.355-.15-.47.772-.889,1.576-1.323,2.371-.029-.913-.05-1.84-.158-2.726-.029-.244-.42-.355-.469-.065a8.1,8.1,0,0,0,.3,3.4l-.026.047c-.446-.995-.933-1.984-1.45-2.934-.249-.452-.883-.053-.678.4.4.883.83,1.769,1.291,2.629-.114-.018-.229-.038-.34-.056a18,18,0,0,0-4.017-.123c4.205-4.572,3.771-11.7-.038-16.532a17.661,17.661,0,0,0-7.107-5.3c.954-.819,1.981-1.555,2.92-2.389.173-.153-.076-.4-.252-.293-.763.49-1.491,1.03-2.227,1.555.373-.833.76-1.676,1.051-2.524.079-.229-.223-.5-.393-.261A8.038,8.038,0,0,0,52.882,46.6l-.044.032c.032-1.089.029-2.192-.021-3.275-.023-.514-.769-.434-.783.062-.035,1.171-.023,2.374.044,3.551a16.028,16.028,0,0,0-11.028-.032c-.387-1.2-.672-2.438-1.077-3.633-.073-.217-.4-.085-.367.123.156.889.37,1.769.569,2.653-.625-.666-1.25-1.35-1.916-1.946-.182-.161-.549.012-.4.261a8.038,8.038,0,0,0,2.465,2.362l.012.053c-.992-.452-2.01-.877-3.025-1.247-.484-.179-.7.54-.249.742.907.414,1.846.8,2.788,1.156-6.142,3.075-8.225,10.247-6.23,16.656.135.437.291.866.458,1.291-.962-.32-1.913-.678-2.89-.957-.22-.065-.3.282-.109.37.825.379,1.67.7,2.509,1.042-.9.135-1.822.261-2.691.47-.238.059-.3.458-.012.475a8.094,8.094,0,0,0,3.345-.684l.05.021c-.933.558-1.863,1.153-2.747,1.778-.423.3.047.88.47.628.913-.546,1.822-1.136,2.7-1.752a18.289,18.289,0,0,0,12.9,9.863,18.862,18.862,0,0,0-1.485,2.691,20.913,20.913,0,0,0-1.778,8.354c-.452-1.18-.8-2.4-1.268-3.574-.085-.211-.408-.065-.358.144.2.88.461,1.749.707,2.62-.66-.634-1.32-1.282-2.019-1.843-.188-.153-.546.038-.379.282a8.049,8.049,0,0,0,2.585,2.227l.015.053c-1.015-.4-2.054-.769-3.087-1.086-.493-.153-.669.575-.208.757,1.209.475,2.474.913,3.721,1.271a.331.331,0,0,0,.293-.044,29.47,29.47,0,0,0,3.686,13.234c-2.937-.135-5.875-.273-8.815-.373a.426.426,0,0,0-.434.558A5.829,5.829,0,0,0,38.4,104.2,42.054,42.054,0,1,1,97.963,92.174Z" transform="translate(-9.734 -15.667)" fill="#161615"/><path d="M66.7,29.464H50.79v70.825h7.53V36.932H61.3v63.357h7.533V31.594a2.13,2.13,0,0,0-2.13-2.13" transform="translate(51.692 -9.533)" fill="#161615"/><path d="M86.947,29.464H73.172a2.13,2.13,0,0,0-2.13,2.13v68.695h7.53V69.17h2.975v31.119h7.53V31.594a2.13,2.13,0,0,0-2.13-2.13m-5.4,31.475H78.572V36.932h2.975Z" transform="translate(90.867 -9.533)" fill="#161615"/><rect width="7.526" height="69.078" transform="translate(122.787 21.678)" fill="#161615"/><path d="M80.571,29.464V92.821H77.6V29.464H71.553V92.821H68.581V29.464H61.048v68.7a2.129,2.129,0,0,0,2.127,2.127H85.967A2.136,2.136,0,0,0,88.1,98.153V29.464Z" transform="translate(71.535 -9.533)" fill="#161615"/><path d="M50.79,55.4h.446l.918,2.259.921-2.259h.437l-1.185,2.744h-.358Z" transform="translate(51.692 40.638)" fill="#005331"/><path d="M54.88,57.871a1.123,1.123,0,0,0,.857-.384l.252.226a1.4,1.4,0,0,1-1.121.511,1.425,1.425,0,0,1-.053-2.843,1.3,1.3,0,0,1,1.271,1.444,1.336,1.336,0,0,1-.006.141h-2.16A.952.952,0,0,0,54.88,57.871Zm.8-1.232a.9.9,0,0,0-.872-.916.941.941,0,0,0-.883.916Z" transform="translate(56.953 40.599)" fill="#005331"/><path d="M56.316,55.432h.408v.71a1.166,1.166,0,0,1,1.109-.757v.437H57.8a1.1,1.1,0,0,0-1.08,1.247v1.086h-.408Z" transform="translate(62.381 40.606)" fill="#005331"/><path d="M58.638,57.509V57.5a1.338,1.338,0,0,1,1.3-1.417,1.23,1.23,0,0,1,1.042.581V55.018h.4v3.844h-.4v-.549a1.226,1.226,0,0,1-1.042.607A1.329,1.329,0,0,1,58.638,57.509ZM61,57.5v-.012a1.014,1.014,0,0,0-.986-1.048.961.961,0,0,0-.96,1.048V57.5a.981.981,0,0,0,.96,1.053A1.019,1.019,0,0,0,61,57.5Z" transform="translate(66.873 39.899)" fill="#005331"/><path d="M62.883,57.871a1.123,1.123,0,0,0,.857-.384l.255.226a1.413,1.413,0,0,1-1.124.511,1.425,1.425,0,0,1-.053-2.843,1.3,1.3,0,0,1,1.271,1.444,1.334,1.334,0,0,1-.006.141h-2.16A.952.952,0,0,0,62.883,57.871Zm.8-1.232a.892.892,0,0,0-.869-.916.941.941,0,0,0-.886.916Z" transform="translate(72.434 40.599)" fill="#005331"/><path d="M66.842,57.943V56.3h-.379v-.358h.379V55.12h.4v.822h.866V56.3h-.866v1.59a.4.4,0,0,0,.461.452.858.858,0,0,0,.393-.094v.346a.985.985,0,0,1-.49.117A.694.694,0,0,1,66.842,57.943Z" transform="translate(82.012 40.096)" fill="#005331"/><path d="M70.242,57.871a1.123,1.123,0,0,0,.857-.384l.252.226a1.4,1.4,0,0,1-1.121.511,1.425,1.425,0,0,1-.053-2.843,1.3,1.3,0,0,1,1.271,1.444,1.337,1.337,0,0,1-.006.141h-2.16A.952.952,0,0,0,70.242,57.871Zm.8-1.232a.892.892,0,0,0-.869-.916.941.941,0,0,0-.886.916Z" transform="translate(86.67 40.599)" fill="#005331"/><path d="M71.679,55.432h.4v.71a1.166,1.166,0,0,1,1.109-.757v.437h-.029a1.1,1.1,0,0,0-1.08,1.247v1.086h-.4Z" transform="translate(92.1 40.606)" fill="#005331"/><path d="M74.092,55.432h.4v.71a1.17,1.17,0,0,1,1.112-.757v.437h-.032a1.1,1.1,0,0,0-1.08,1.247v1.086h-.4Z" transform="translate(96.767 40.606)" fill="#005331"/><path d="M76.391,57.361v-.012c0-.584.472-.889,1.162-.889a2.9,2.9,0,0,1,.833.114v-.085c0-.484-.3-.737-.807-.737a1.867,1.867,0,0,0-.825.2l-.123-.332a2.227,2.227,0,0,1,.992-.232,1.194,1.194,0,0,1,.877.3,1.069,1.069,0,0,1,.285.8V58.15h-.4v-.4a1.2,1.2,0,0,1-.98.464A.914.914,0,0,1,76.391,57.361Zm2-.211V56.9a2.781,2.781,0,0,0-.8-.117c-.508,0-.8.223-.8.549v.009c0,.343.314.543.684.543A.815.815,0,0,0,78.392,57.15Z" transform="translate(101.214 40.61)" fill="#005331"/><path d="M58.884,32.9a2.214,2.214,0,0,1-.728-1.582c0-.974,1.6-3.583,4.721-3.583A2.237,2.237,0,0,1,65.22,29.51a1.354,1.354,0,0,1,.889-.282c.587,0,1.6.355,2.254,3.372,0,0,2.166-.693,2.415,2.218s-1.67,4.915-3.037,4.915-8.6-.088-8.6,0c-1.394,0-2.565-2.306-2.565-4.17A2.526,2.526,0,0,1,58.884,32.9" transform="translate(62.888 -12.872)" fill="#006f3f"/><path d="M70.783,33.682a6.212,6.212,0,0,0-.006-.933c-.249-2.911-2.415-2.218-2.415-2.218q-.04-.176-.079-.343a4.484,4.484,0,0,0-3.025-1.379c-1.937-.018-2.13,1.863-2.7,1.916s-.5-.939-1.934-.8S59.063,32.8,57.8,32.8a.943.943,0,0,1-.91-.634,2.855,2.855,0,0,0-.314,1.326c0,.062,0,.126,0,.188h0c0,3.245,3.187,5.872,7.116,5.872s7.116-2.626,7.116-5.872Z" transform="translate(62.888 -10.803)" fill="#005331"/></svg>