<svg xmlns="http://www.w3.org/2000/svg" width="20" height="22.857" viewBox="0 0 20 22.857"><path d="M18.6,22.857H1.459a1.363,1.363,0,0,1-1.016-.424,1.388,1.388,0,0,1-.413-1v-20A1.382,1.382,0,0,1,.443.413,1.377,1.377,0,0,1,1.459,0H18.6a1.392,1.392,0,0,1,1,.413,1.362,1.362,0,0,1,.424,1.016v20A1.449,1.449,0,0,1,18.6,22.857ZM2.887,1.429A1.409,1.409,0,0,0,1.459,2.857V20a1.409,1.409,0,0,0,1.429,1.429h10q0-1.339-.067-2.187a8.734,8.734,0,0,0-.234-1.5,2.3,2.3,0,0,0-.514-1.016,2.849,2.849,0,0,0-.815-.6,5.771,5.771,0,0,0-1.228-.413,3.6,3.6,0,0,0-.826-.09,5.237,5.237,0,0,0-.8.056q-.357.056-.837.178t-.726.2l-.658.212a3.343,3.343,0,0,0-.436.156L17.864,1.607a1.453,1.453,0,0,0-.692-.178H2.887ZM18.6,2.857a1.457,1.457,0,0,0-.29-.87L13.758,21.429h3.415a1.392,1.392,0,0,0,1-.413A1.362,1.362,0,0,0,18.6,20Z" transform="translate(-0.03)" fill="#fff"/></svg>