<svg xmlns="http://www.w3.org/2000/svg" width="250.742" height="270.3" viewBox="0 0 250.742 270.3"><g transform="translate(0)"><g transform="translate(0)"><path d="M-152.577,369.973c-1.852-11.142.215-23.211,7.165-32.157,6.173-7.946,15.581-12.819,25.182-15.978s19.639-4.84,29.3-7.809c21.38-6.57,40.978-19.861,53.089-38.523,12.2-18.8,16.365-41.907,28.938-60.458C-1.91,204.731,8.4,195.706,20.831,194.1c11.886-1.531,23.891,4.115,32.255,12.627s13.556,19.592,17.5,30.814c8.915,25.378,12.171,52.937,7.472,79.4s-17.612,51.735-37.688,69.789c-22.733,20.444-53.573,30.756-84.235,32.1a183.064,183.064,0,0,1-30.713-1.32,227.053,227.053,0,0,1-30.491-6.045c-8.245-2.207-16.456-4.763-24.527-7.539-4.713-1.621-8.755-3.812-11.84-7.8a60.6,60.6,0,0,1-10.4-22.538Q-152.271,371.8-152.577,369.973Z" transform="translate(153.221 -154.563)" fill="#85af9f"/><path d="M118.428,288.372c12.842.625,25.157,6.35,22.728,21.773-.987,6.265-4.477,11.921-8.8,16.6a51.842,51.842,0,0,1-32.33,16.162c-8.39.879-17.458-.547-23.847-6.008-9.838-8.41-9.374-22-1.269-31.438,6.946-8.093,18.662-13.228,28.946-15.726A52.509,52.509,0,0,1,118.428,288.372Z" transform="translate(-30.68 -197.296)" fill="#6d7e8c"/><path d="M69.317,231.824c-2.834,7.689-8.723,14.087-17.8,9.671a21.054,21.054,0,0,1-8.59-8.514,32.665,32.665,0,0,1-3.837-22.739c1.055-5.27,3.665-10.512,8.262-13.357,7.077-4.379,15.394-1.508,19.691,5.22,3.683,5.767,4.627,13.869,4.212,20.6A32.9,32.9,0,0,1,69.317,231.824Z" transform="translate(56.198 -154.99)" fill="#6d7e8c"/><path d="M-177.133,363.379c10.444-19.665,31.928-29.1,50.725-39.114,10.675-5.686,21.179-11.824,30.69-19.3a118.682,118.682,0,0,0,24.453-26.478c13.021-18.972,22.629-40.463,39.488-56.614,7.781-7.456,17.046-13.513,27.55-16.393a56.3,56.3,0,0,1,33.829,1.4,51.846,51.846,0,0,1,7.579,3.538c.61.342.025,1.22-.581.9a56.516,56.516,0,0,0-33.964-5.875c-10.954,1.571-20.927,6.646-29.367,13.634C-44.326,233.645-54.37,254.44-66.385,273.3c-6.317,9.915-13.379,19.323-22.143,27.257-8.7,7.877-18.59,14.355-28.791,20.152-9.672,5.5-19.758,10.241-29.382,15.818-9.2,5.331-18.15,11.569-24.71,20.018-14.219,18.312-13.108,42.638-10.572,64.375.313,2.677.625,5.354.958,8.029.038.308-.433.412-.482.1C-184.836,407.538-187.783,383.434-177.133,363.379Z" transform="translate(213.304 -158.937)" fill="#f7f1e4"/><path d="M-62.289,330.124a88.923,88.923,0,0,1,3.194-19.908,52.723,52.723,0,0,1,7.66-16.879A27.625,27.625,0,0,1-37.83,283a23.812,23.812,0,0,1,3.107-.791,19.067,19.067,0,0,1-1.309-2.565c-4.707-11.281,2.929-23.2,12.418-29.194,12-7.584,26.658-8.137,40.127-11.38a71.766,71.766,0,0,0,31.9-16.757,62.169,62.169,0,0,0,11.359-13.929,68.5,68.5,0,0,0,7.31-18.678c3.32-13.427,4.125-27.477,9.049-40.5,4.214-11.149,11.915-21.55,23.63-25.631a26.832,26.832,0,0,1,8.011-1.471c.906-.03.826,1.362-.073,1.393-11.7.388-21.485,8.592-27.079,18.3-6.579,11.415-8.217,24.724-10.5,37.451-2.153,12.025-5.192,23.863-12.418,33.96a68.133,68.133,0,0,1-24.362,20.718,73.736,73.736,0,0,1-15.716,5.857c-6.715,1.682-13.588,2.61-20.359,4.025-12.062,2.521-25.026,7.213-31.09,18.712-2.7,5.113-3.589,11.258-1.32,16.69a18.486,18.486,0,0,0,1.491,2.834,19.364,19.364,0,0,1,11.974,1.989c1.62.889,4.1,2.835,3.149,4.979-1,2.256-4.6,1.453-6.429.936a16.979,16.979,0,0,1-9.206-6.873,24.3,24.3,0,0,0-12.055,5.852,38.584,38.584,0,0,0-9.752,14.836,79.821,79.821,0,0,0-4.685,18.368A91.212,91.212,0,0,0-57.8,360.283c.939,3.19,2.065,6.329,3.315,9.411.1.242-.26.428-.371.184A86.89,86.89,0,0,1-62.289,330.124Zm38.631-40.884c1.129.22,3.42.7,4.145-.5.958-1.595-1.583-3.3-2.685-3.907a17.365,17.365,0,0,0-8.207-2.058,21.128,21.128,0,0,0-2.653.143A15.466,15.466,0,0,0-23.658,289.24Z" transform="translate(74.841 -122.104)" fill="#3c4c56"/></g></g></svg>